<?xml version="1.0" standalone="no"?>
<!DOCTYPE svg PUBLIC "-//W3C//DTD SVG 20010904//EN"
 "http://www.w3.org/TR/2001/REC-SVG-20010904/DTD/svg10.dtd">
<svg version="1.0" xmlns="http://www.w3.org/2000/svg"
 width="2169.000000pt" height="533.000000pt" viewBox="0 0 2169.000000 533.000000"
 preserveAspectRatio="xMidYMid meet">
<metadata>
Created by potrace 1.15, written by Peter Selinger 2001-2017
</metadata>
<g transform="translate(0.000000,533.000000) scale(0.100000,-0.100000)"
fill="#000000" stroke="none">
<path d="M2385 4119 c-55 -5 -131 -14 -170 -22 l-70 -13 -3 -1400 c-3 -1554
-6 -1470 63 -1565 63 -87 165 -119 383 -119 110 0 293 20 336 36 15 6 16 77
16 819 0 643 3 815 13 823 7 6 48 23 92 38 109 38 261 40 346 6 68 -27 124
-79 153 -141 20 -45 21 -62 27 -686 3 -413 9 -651 16 -670 37 -107 98 -171
191 -201 48 -16 87 -19 252 -18 126 0 220 6 265 15 l70 14 0 815 0 815 -23 90
c-79 311 -295 513 -632 592 -104 24 -134 27 -310 27 -186 0 -200 -2 -310 -31
-63 -17 -123 -34 -132 -38 -15 -6 -17 17 -20 282 -3 263 -5 292 -24 339 -30
72 -66 117 -121 147 -81 43 -228 60 -408 46z"/>
<path d="M470 3799 c-36 -5 -92 -15 -125 -22 l-60 -12 0 -1100 0 -1100 22 -85
c64 -240 200 -383 438 -459 136 -44 229 -54 443 -48 206 6 266 17 365 70 69
36 119 91 156 167 23 48 26 68 26 160 0 101 -2 109 -34 173 -50 98 -54 101
-132 82 -35 -8 -109 -18 -164 -22 -168 -10 -275 31 -316 121 -17 38 -19 71
-19 419 l0 377 241 0 c161 0 255 4 283 12 52 16 127 90 144 143 36 110 21 284
-32 401 l-25 54 -304 0 -305 0 -4 218 c-5 244 -17 298 -80 360 -87 83 -299
121 -518 91z"/>
<path d="M5745 3369 c-331 -43 -625 -213 -788 -457 -146 -218 -206 -461 -194
-777 26 -636 377 -1037 1007 -1152 118 -21 440 -24 580 -4 209 29 394 96 485
174 110 94 141 274 73 417 -12 25 -48 71 -80 103 l-57 58 -72 -36 c-88 -45
-221 -89 -336 -112 -128 -25 -353 -22 -454 5 -156 42 -274 123 -325 224 l-24
47 33 6 c17 3 273 41 567 85 294 44 560 85 590 91 123 25 211 84 258 173 26
49 27 56 26 206 -1 138 -4 165 -27 243 -98 321 -327 546 -667 655 -174 56
-403 75 -595 51z m304 -593 c29 -8 70 -26 92 -40 47 -31 114 -118 133 -173
l14 -41 -391 -64 c-216 -36 -393 -64 -395 -63 -8 6 31 141 53 185 47 93 139
165 245 194 71 19 181 20 249 2z"/>
</g>
</svg>
