<?xml version="1.0" standalone="no"?>
<!DOCTYPE svg PUBLIC "-//W3C//DTD SVG 20010904//EN"
 "http://www.w3.org/TR/2001/REC-SVG-20010904/DTD/svg10.dtd">
<svg version="1.0" xmlns="http://www.w3.org/2000/svg"
 width="541.000000pt" height="533.000000pt" viewBox="0 0 541.000000 533.000000"
 preserveAspectRatio="xMidYMid meet">
<metadata>
Created by potrace 1.15, written by Peter Selinger 2001-2017
</metadata>
<g transform="translate(0.000000,533.000000) scale(0.100000,-0.100000)"
fill="#000000" stroke="none">
<path d="M1717 4548 c-81 -101 -249 -344 -317 -458 -12 -19 -38 -64 -60 -100
-102 -172 -230 -477 -230 -551 0 -36 39 -79 73 -79 33 0 73 46 96 110 48 133
190 435 276 585 18 33 45 80 60 105 14 25 43 72 65 105 22 33 43 67 46 75 12
24 47 70 54 70 4 0 21 -35 39 -77 61 -146 83 -198 111 -263 16 -36 42 -101 60
-145 17 -44 39 -98 49 -120 26 -57 59 -138 92 -225 27 -69 28 -76 12 -87 -9
-7 -22 -13 -29 -13 -17 0 -193 -74 -250 -106 -187 -103 -318 -200 -439 -326
-102 -108 -116 -126 -161 -217 -113 -232 -147 -465 -106 -721 25 -155 90 -324
166 -435 67 -97 203 -235 305 -310 246 -181 448 -262 791 -316 534 -84 1157
28 1567 283 234 145 401 413 473 758 28 130 39 389 21 482 -35 185 -61 266
-128 393 -46 89 -66 117 -130 181 -115 114 -337 241 -548 314 -66 22 -123 44
-127 48 -5 5 3 23 17 42 14 19 25 38 25 44 0 5 11 26 23 45 21 32 95 156 147
246 71 123 95 163 155 265 86 146 126 210 131 210 9 0 107 -218 174 -385 71
-176 137 -384 185 -575 14 -58 33 -115 41 -128 23 -35 61 -46 91 -27 39 26 48
57 35 116 -7 28 -12 63 -12 77 0 33 -67 265 -109 377 -37 100 -63 160 -133
305 -30 63 -58 122 -62 130 -3 8 -22 44 -42 80 -20 36 -45 83 -56 105 -31 61
-67 105 -86 105 -29 0 -61 -29 -87 -78 -14 -26 -39 -69 -55 -97 -16 -27 -41
-70 -55 -95 -14 -25 -35 -61 -47 -80 -12 -19 -46 -78 -76 -130 -31 -52 -66
-113 -80 -135 -13 -22 -66 -112 -117 -200 -123 -210 -111 -197 -160 -185 -158
39 -305 53 -540 54 -243 1 -350 -9 -523 -49 -35 -8 -67 -15 -71 -15 -5 0 -15
19 -24 43 -16 45 -69 172 -92 224 -8 17 -15 34 -15 39 0 4 -14 39 -31 78 -43
98 -72 167 -109 261 -18 44 -45 109 -60 145 -30 68 -69 163 -90 218 -25 65
-75 69 -123 10z m2154 -2008 c116 -22 227 -96 304 -200 27 -37 41 -70 53 -128
15 -73 15 -83 -1 -147 -34 -137 -154 -251 -316 -299 -241 -71 -521 103 -572
357 -10 48 -9 64 9 124 35 114 107 197 220 253 99 49 191 61 303 40z m-1866
-75 c135 -35 261 -130 318 -239 29 -56 31 -69 32 -156 0 -92 -1 -97 -38 -162
-127 -227 -435 -297 -657 -150 -66 43 -130 115 -162 181 -26 53 -33 81 -36
143 -4 70 -1 83 29 148 83 181 314 286 514 235z m1089 -296 c34 -27 34 -49 -2
-49 -18 0 -38 -11 -58 -33 -17 -18 -55 -46 -85 -62 -99 -54 -243 -34 -325 46
-28 27 -34 29 -53 18 -31 -20 -48 1 -27 33 31 48 95 62 81 19 -12 -39 112
-101 203 -101 72 0 193 74 198 122 1 12 3 24 3 26 3 9 43 -2 65 -19z m817
-519 c28 -16 27 -95 -2 -111 -31 -16 -184 -8 -203 11 -28 30 -29 58 -2 85 23
23 33 25 106 25 45 0 90 -5 101 -10z m-1834 -32 c28 -26 29 -45 2 -77 -18 -22
-31 -25 -121 -32 -129 -10 -168 6 -168 71 0 39 54 55 199 59 54 1 69 -3 88
-21z"/>
<path d="M3785 2249 c-11 -6 -31 -25 -44 -44 -31 -46 -23 -92 25 -134 40 -35
85 -41 124 -15 41 27 50 45 50 97 0 42 -4 53 -31 78 -33 31 -83 38 -124 18z"/>
<path d="M1829 2177 c-63 -42 -62 -149 1 -182 52 -27 98 -20 136 21 40 42 44
82 14 132 -34 55 -95 67 -151 29z"/>
</g>
</svg>
